HIERARCHY
ROOT Hips
{
	OFFSET -14.64140 90.27770 -84.91600
	CHANNELS 6 Xposition Yposition Zposition Zrotation Xrotation Yrotation
	JOINT Spine
	{
		OFFSET 0.00000 13.20850 -1.60436
		CHANNELS 3 Zrotation Xrotation Yrotation
		JOINT Spine1
		{
			OFFSET 0.00000 8.61716 0.00000
			CHANNELS 3 Zrotation Xrotation Yrotation
			JOINT Spine2
			{
				OFFSET 0.00000 8.61717 0.00000
				CHANNELS 3 Zrotation Xrotation Yrotation
				JOINT Spine3
				{
					OFFSET 0.00000 8.61717 0.00000
					CHANNELS 3 Zrotation Xrotation Yrotation
					JOINT Neck
					{
						OFFSET 0.00000 11.07920 1.10792
						CHANNELS 3 Zrotation Xrotation Yrotation
						JOINT Neck1
						{
							OFFSET 0.00000 7.08032 0.00000
							CHANNELS 3 Zrotation Xrotation Yrotation
							JOINT Head
							{
								OFFSET 0.00000 7.08031 0.00000
								CHANNELS 3 Zrotation Xrotation Yrotation
								End site
								{
									OFFSET 0.00000 0.00000 0.00000
								}
							}
						}
					}
					JOINT RightShoulder
					{
						OFFSET -0.01000 7.91373 5.19711
						CHANNELS 3 Zrotation Xrotation Yrotation
						JOINT RightArm
						{
							OFFSET -18.41580 0.00000 0.00000
							CHANNELS 3 Zrotation Xrotation Yrotation
							JOINT RightForeArm
							{
								OFFSET -29.11090 0.00000 0.00000
								CHANNELS 3 Zrotation Xrotation Yrotation
								JOINT RightHand
								{
									OFFSET -24.65040 0.00000 0.00000
									CHANNELS 3 Zrotation Xrotation Yrotation
									JOINT RightHandThumb1
									{
										OFFSET -5.35114 -0.85590 3.97906
										CHANNELS 3 Zrotation Xrotation Yrotation
										JOINT RightHandThumb2
										{
											OFFSET -4.52789 0.00000 0.00000
											CHANNELS 3 Zrotation Xrotation Yrotation
											JOINT RightHandThumb3
											{
												OFFSET -2.46976 0.00000 0.00000
												CHANNELS 3 Zrotation Xrotation Yrotation
												End site
												{
													OFFSET 0.00000 0.00000 0.00000
												}
											}
										}
									}
									JOINT RightHandIndex1
									{
										OFFSET -14.26970 0.00000 2.88139
										CHANNELS 3 Zrotation Xrotation Yrotation
										JOINT RightHandIndex2
										{
											OFFSET -5.48836 0.00000 0.00000
											CHANNELS 3 Zrotation Xrotation Yrotation
											JOINT RightHandIndex3
											{
												OFFSET -3.01859 0.00000 0.00000
												CHANNELS 3 Zrotation Xrotation Yrotation
												End site
												{
													OFFSET 0.00000 0.00000 0.00000
												}
											}
										}
									}
									JOINT RightHandMiddle1
									{
										OFFSET -14.26970 0.00000 -0.09147
										CHANNELS 3 Zrotation Xrotation Yrotation
										JOINT RightHandMiddle2
										{
											OFFSET -6.17441 0.00000 0.00000
											CHANNELS 3 Zrotation Xrotation Yrotation
											JOINT RightHandMiddle3
											{
												OFFSET -3.56743 0.00000 0.00000
												CHANNELS 3 Zrotation Xrotation Yrotation
												End site
												{
													OFFSET 0.00000 0.00000 0.00000
												}
											}
										}
									}
									JOINT RightHandRing1
									{
										OFFSET -12.69180 0.00000 -3.06433
										CHANNELS 3 Zrotation Xrotation Yrotation
										JOINT RightHandRing2
										{
											OFFSET -5.62556 0.00000 0.00000
											CHANNELS 3 Zrotation Xrotation Yrotation
											JOINT RightHandRing3
											{
												OFFSET -3.56744 0.00000 0.00000
												CHANNELS 3 Zrotation Xrotation Yrotation
												End site
												{
													OFFSET 0.00000 0.00000 0.00000
												}
											}
										}
									}
									JOINT RightHandPinky1
									{
										OFFSET -11.11390 0.00000 -6.03719
										CHANNELS 3 Zrotation Xrotation Yrotation
										JOINT RightHandPinky2
										{
											OFFSET -4.52789 0.00000 0.00000
											CHANNELS 3 Zrotation Xrotation Yrotation
											JOINT RightHandPinky3
											{
												OFFSET -2.46976 0.00000 0.00000
												CHANNELS 3 Zrotation Xrotation Yrotation
												End site
												{
													OFFSET 0.00000 0.00000 0.00000
												}
											}
										}
									}
								}
							}
						}
					}
					JOINT LeftShoulder
					{
						OFFSET 0.01000 7.91373 5.19711
						CHANNELS 3 Zrotation Xrotation Yrotation
						JOINT LeftArm
						{
							OFFSET 18.41580 0.00000 0.00000
							CHANNELS 3 Zrotation Xrotation Yrotation
							JOINT LeftForeArm
							{
								OFFSET 29.11090 0.00000 0.00000
								CHANNELS 3 Zrotation Xrotation Yrotation
								JOINT LeftHand
								{
									OFFSET 24.65040 0.00000 0.00000
									CHANNELS 3 Zrotation Xrotation Yrotation
									JOINT LeftHandThumb1
									{
										OFFSET 5.35114 -0.85590 3.97906
										CHANNELS 3 Zrotation Xrotation Yrotation
										JOINT LeftHandThumb2
										{
											OFFSET 4.52789 0.00000 0.00000
											CHANNELS 3 Zrotation Xrotation Yrotation
											JOINT LeftHandThumb3
											{
												OFFSET 2.46977 0.00000 0.00000
												CHANNELS 3 Zrotation Xrotation Yrotation
												End site
												{
													OFFSET 0.00000 0.00000 0.00000
												}
											}
										}
									}
									JOINT LeftHandIndex1
									{
										OFFSET 14.26970 0.00000 2.88139
										CHANNELS 3 Zrotation Xrotation Yrotation
										JOINT LeftHandIndex2
										{
											OFFSET 5.48836 0.00000 0.00000
											CHANNELS 3 Zrotation Xrotation Yrotation
											JOINT LeftHandIndex3
											{
												OFFSET 3.01859 0.00000 0.00000
												CHANNELS 3 Zrotation Xrotation Yrotation
												End site
												{
													OFFSET 0.00000 0.00000 0.00000
												}
											}
										}
									}
									JOINT LeftHandMiddle1
									{
										OFFSET 14.26970 0.00000 -0.09147
										CHANNELS 3 Zrotation Xrotation Yrotation
										JOINT LeftHandMiddle2
										{
											OFFSET 6.17440 0.00000 0.00000
											CHANNELS 3 Zrotation Xrotation Yrotation
											JOINT LeftHandMiddle3
											{
												OFFSET 3.56744 0.00000 0.00000
												CHANNELS 3 Zrotation Xrotation Yrotation
												End site
												{
													OFFSET 0.00000 0.00000 0.00000
												}
											}
										}
									}
									JOINT LeftHandRing1
									{
										OFFSET 12.69180 0.00000 -3.06433
										CHANNELS 3 Zrotation Xrotation Yrotation
										JOINT LeftHandRing2
										{
											OFFSET 5.62556 0.00000 0.00000
											CHANNELS 3 Zrotation Xrotation Yrotation
											JOINT LeftHandRing3
											{
												OFFSET 3.56744 0.00000 0.00000
												CHANNELS 3 Zrotation Xrotation Yrotation
												End site
												{
													OFFSET 0.00000 0.00000 0.00000
												}
											}
										}
									}
									JOINT LeftHandPinky1
									{
										OFFSET 11.11390 0.00000 -6.03719
										CHANNELS 3 Zrotation Xrotation Yrotation
										JOINT LeftHandPinky2
										{
											OFFSET 4.52789 0.00000 0.00000
											CHANNELS 3 Zrotation Xrotation Yrotation
											JOINT LeftHandPinky3
											{
												OFFSET 2.46976 0.00000 0.00000
												CHANNELS 3 Zrotation Xrotation Yrotation
												End site
												{
													OFFSET 0.00000 0.00000 0.00000
												}
											}
										}
									}
								}
							}
						}
					}
					JOINT pCube4
					{
						OFFSET 0.00000 10.91090 1.10792
						CHANNELS 3 Zrotation Xrotation Yrotation
						End site
						{
							OFFSET 0.00000 0.00000 0.00000
						}
					}
				}
			}
		}
	}
	JOINT RightUpLeg
	{
		OFFSET -9.98441 0.00000 0.00000
		CHANNELS 3 Zrotation Xrotation Yrotation
		JOINT RightLeg
		{
			OFFSET 0.00000 -42.11790 0.00000
			CHANNELS 3 Zrotation Xrotation Yrotation
			JOINT RightFoot
			{
				OFFSET 0.00000 -45.00020 -0.00001
				CHANNELS 3 Zrotation Xrotation Yrotation
				JOINT RightForeFoot
				{
					OFFSET 0.00000 -3.74820 0.00000
					CHANNELS 3 Zrotation Xrotation Yrotation
					JOINT RightToeBase
					{
						OFFSET 0.00000 0.06325 14.43120
						CHANNELS 3 Zrotation Xrotation Yrotation
						End site
						{
							OFFSET 0.00000 0.00000 0.00000
						}
					}
				}
			}
		}
	}
	JOINT LeftUpLeg
	{
		OFFSET 9.98441 0.00000 0.00000
		CHANNELS 3 Zrotation Xrotation Yrotation
		JOINT LeftLeg
		{
			OFFSET 0.00000 -42.11800 0.00000
			CHANNELS 3 Zrotation Xrotation Yrotation
			JOINT LeftFoot
			{
				OFFSET 0.00000 -45.00070 0.00000
				CHANNELS 3 Zrotation Xrotation Yrotation
				JOINT LeftForeFoot
				{
					OFFSET 0.00000 -3.74824 0.00000
					CHANNELS 3 Zrotation Xrotation Yrotation
					JOINT LeftToeBase
					{
						OFFSET 0.00000 0.06325 14.43110
						CHANNELS 3 Zrotation Xrotation Yrotation
						End site
						{
							OFFSET 0.00000 0.00000 0.00000
						}
					}
				}
			}
		}
	}
}
MOTION
Frames: 4
Frame Time: 0.050000
-0.010995012682130842 -0.030124971510824813 0.04037347263940275 -0.04131668441889608 0.010615842465670825 0.03305311061340134 -1.2934197429197625 1.6490148759329875 -0.9539765728507215 -0.9431383831565293 3.898486929198764 0.377040940108804 -1.1883628274121543 -1.8580689116789588 -0.3121694580123108 0.6153584381880178 0.6139174857465091 -0.7310565244275384 0.7020072371106743 14.501797847096217 -2.459503911966539 0.1271574971120851 0.3117347066331285 -7.713750749430787 1.1302176857510295 -14.969711309329641 -0.596308439637861 -6.088765310542014 2.0062515295114736 -14.834114065125421 72.7875956121818 28.987367685801278 7.917742282566513 2.672913122886859 2.3469018603419065 66.89993428020632 21.683542269706717 -0.39593687425863056 -4.356473371683455 4.54761456523142 -0.10802364170952208 -1.6236002577493045 -0.028757405542711053 0.008722206177025701 -56.22615452778747 0.015056649061106459 0.010771009029173422 -56.24700283436004 -38.74428841124736 -0.024970617133797116 0.031587077394642706 -0.025210882028750662 0.0447521930402083 -0.011443259010485964 -0.044271714384147655 -0.040339856618552335 -0.048716395366784654 -36.714575335427064 0.019900646960152514 -0.047110805949608196 0.004849815665268209 0.021075106565175493 0.026501525446039027 0.04192864087941114 -0.040629312692107664 0.01324675036729796 -19.76259397480315 -0.0198981698870747 0.02016311652259541 -0.008346106611344226 0.045638171036293036 0.00381457804777098 0.02376027408364224 0.0008534301162046677 0.0360416207424994 24.019764345308435 -0.03997058081942069 -0.004090504055920707 28.872873864517185 0.007473332075891361 -0.018414129253835586 28.868917037609247 -0.044614609233372605 0.0015779069254081173 5.941800448674312 1.4958921500453002 13.238211814904119 -68.77575390536909 29.65353001285485 -7.550222593044518 3.6142993275541504 -10.080657089869904 -56.46734806320115 -10.94135145627405 -0.38827612471487755 2.0676721196822356 -0.4687545241850397 0.06851414513621046 -8.138417400148526 0.003602918917495766 -0.010730178100976942 44.568778813025894 0.032622371831693114 -0.04465324293790233 44.58402658121474 12.437026701155663 0.014144573446238675 0.0315080646780583 -0.016696661554513555 -0.0418362790230933 -0.018215949456141238 -0.020490320131554208 0.043802883057742166 -0.038305387994078365 11.074240149551725 0.022793513662181242 0.008226324047573312 0.04098376078962554 0.0014093218472010845 -0.002559828861408972 -0.04045570908163056 0.03167168478863841 0.04955058268959219 4.784043117109007 0.041439230197354356 0.012043352682876764 0.03941944995955418 0.0488430831462833 -0.01964535404291637 -0.04324655624424997 0.0002068502207610861 -0.048090810382046614 -5.639682778120823 0.025778517058577692 -2.6449818083053713e-05 -6.712830104112922 -0.0021533970938201604 0.036781757173491046 -6.716512133040115 0.0010833424369967022 0.002661164062851251 0.03172095801093899 0.030128395704855877 -0.029071773798339143 8.019003539488082 3.490121577599541 -19.191455565978366 0.011631634861920594 10.392676917590602 0.03143724742794446 -5.640746813772602 -15.656668188844563 3.1767441842732373 -0.04571478233152445 0.022933436339508687 0.014795431060410936 -0.005699723528430908 4.659560396487786 0.003975171628831043 12.490107691684933 -8.257109328073447 6.8736949203667015 -0.02297588896648611 46.349789093246955 0.019336824439185343 -4.33467299593847 -14.75650892025657 -3.824941731502624 0.03571419023942141 0.01657912614450379 -0.005111541539010735 0.02756922215794476 -10.780243458792066 -0.024391752927007862 
0.023341058283486225 -0.005062643664943811 -0.04615132224292117 -0.026369530852872986 -0.020940663447915436 -0.02186627537523663 -1.0470131122793298 1.594402184804746 -1.0001681810893486 -0.961381688776474 3.909113747687014 0.37829551190473565 -1.2364211883579552 -1.910456583407783 -0.29414024626624485 0.6469802761288631 0.579973377001147 -0.6714314999525567 0.7932888201440709 14.51837454146456 -2.812431028134867 0.16249540484729272 0.34059752538501165 -8.369635147939855 1.2051949030594873 -15.073538892293925 -0.6342722963462933 -6.451664931521903 2.1228034593322036 -15.04411054493275 73.2375798492638 28.920172044572958 7.916510299201369 2.556064331198467 2.2801771477477994 66.25771580871299 21.553690776327205 -0.41720530643437914 -4.331921291541156 4.499599202549704 -0.11983781758389768 -1.608103323815861 -0.035458682512185126 0.0009916059796721993 -56.24540650492853 0.021768020924260605 -0.036163318809104776 -56.27162980256769 -38.73744328939091 -0.00971901771035069 0.02280445683255411 0.02580003063945635 0.04908576288856272 -0.00739407044810531 -0.0034311626459146254 -0.032423320885067095 0.03811603378549373 -36.69449753285065 -0.024569779751626126 -0.03951433241663589 0.0073236976068406035 -0.04826047387733385 -0.04924239106911894 0.009963580104612941 0.004559674242968026 -0.016346591849429822 -19.794107889181173 -0.03294624791174906 -0.03612983361233589 0.03977582729333693 -0.007291817122939877 0.03571582058122203 -0.02085180818037895 -0.013655540505186605 0.01298269495745516 24.048965719675802 -0.03181372824495802 -0.029819967443501728 28.827056083608483 0.006597275528599753 -0.04775426679805693 28.81854279280607 -0.02814042243347342 0.02663931454109417 6.046953167963522 1.4829537403848951 13.257774864690399 -69.18759794217559 29.713826798229956 -7.082364245028998 3.5471651432918154 -9.51914885742457 -54.85449794766304 -11.247049467703429 -0.32457752975481585 2.1914008918656736 -0.4814837546425888 0.02810107697583864 -8.091302427037995 -0.02748097748859222 -0.03390240162338445 44.53792421141882 -0.013306037277341858 -0.04481254578010347 44.599381495978974 12.424865617672436 0.04464833443414046 0.022255656732332683 0.011196245778155062 0.04227937704422155 -0.020533902924626743 -0.021118172028943043 -0.03619227689589743 -0.017167323586802636 11.084577757401323 -0.04048023858731241 0.01345532816364031 0.014761161552317529 -0.036498030230654496 0.026418456273546564 0.03827786368413647 -0.022364174920279496 -0.002192497311812041 4.724367490616735 -0.005290171317559862 0.030583265028338646 0.019925279682568287 -0.03193706246075439 -0.009083222395032984 0.028448945099189084 -0.04882297678970967 -0.019942216885088977 -5.590164764680108 -0.01297858496428807 -0.008438321736446154 -6.74095136643364 -0.02791234322330407 -0.015884918178535476 -6.701580648091224 -0.02309164496272825 -0.030232577313838885 0.005250992957121909 0.02682944552129652 0.017600284177016933 8.049801301504605 3.515817360136372 -19.268557157181256 0.014423637420103013 10.403073092682844 -0.02852568411936542 -5.661553974009155 -15.636708281432927 3.1814746842083577 0.04996576176405613 0.046370519832301386 -0.0032658929776922365 0.017308970873967718 4.746141148566689 -0.04816992013898388 12.48865999464994 -8.270541421822783 6.915091558778799 -0.013262414355055598 46.4202190094443 -0.004690229130392288 -4.302843696758604 -14.730568177413712 -3.8657391640793737 0.04277797357174494 0.005603181449496807 -0.006537487047166442 -0.0084721281448918 -10.738791972854555 -0.03496699720204136 
-0.034959763340989485 -0.04800649949603357 0.012906414048302943 0.033651788581499816 0.014579260819781933 0.02600002038928407 -0.7388830688478176 1.470515814206641 -1.0624668701314879 -0.9090178530186376 3.9029411045410405 0.333273752537677 -1.2009524755000254 -1.9479528286944732 -0.23674276509915504 0.6617455102049263 0.5879264669384253 -0.6576713939405546 0.8350212217561992 14.573428570287795 -3.083844319235141 0.139823085084578 0.31404563218719356 -9.11255932226223 1.2551788737145353 -15.128906309962034 -0.749017639573483 -6.749586498518597 2.1698918661237863 -15.144384258806715 73.29513805555523 29.16191219567004 8.189298388156594 2.7093781583738386 2.26158250290411 66.15358649603863 21.507313770635648 -0.36206135592992716 -4.330234942055901 4.537779523804109 -0.14052655268744413 -1.5699327260115483 -0.030060763550407384 0.032219358528444215 -56.21743829054264 0.00018773440556249423 -0.03600167292790462 -56.276959442597025 -38.761380055252765 -0.006163519197109837 0.03552047357403712 0.0467381671114261 0.013511177124636585 0.041383935029959774 0.03257221276590186 -0.01727371061807517 -0.020912513538691113 -36.65920920083336 0.005177163788526434 0.034791650124481356 0.00550106284117436 0.0373429392855745 0.0020310002627976814 0.003067995683006733 0.041861146743417024 0.045955601301073554 -19.778426208143827 -0.028792949972188415 0.03522344707409195 0.00571120213533498 -0.0017872277305234297 -0.044673802754880296 -0.022565418361110496 0.024057475028167113 -0.02641574067845188 24.029766001455457 0.03249579909743288 -0.001898117442406529 28.88104579184412 -0.041136237863167446 0.02423394012374131 28.82094308945996 0.03226187266465281 -0.04074875198084465 6.067568163792321 1.4545583694278554 13.33564168910836 -69.62388632838588 29.71825309497321 -6.4595089294987655 3.2700506604652277 -8.97229245422477 -53.240969339682735 -11.759188822261253 -0.21909631530991625 2.136355446018537 -0.45756920746006846 0.05917067354676506 -8.131138197003152 0.02273059824746766 0.021587690611486656 44.5273821117902 -0.004620376982418237 0.04721961918874383 44.597663976328256 12.504258278829216 -0.0007515187635272451 -0.002566555156527454 0.020950591503105444 -0.0188160011815553 -0.03750439825845818 0.013844620552082583 -0.0010295753528022412 0.03370289607804117 11.097379428707098 0.007196741615922734 0.013115031496300502 -0.01577041049694392 0.001839422747261038 0.027192722206396784 -0.027980987486011407 0.04076538326403383 0.044982614822958046 4.7404853387946355 0.0387406732131479 -0.03436668478488863 0.02315223985248761 0.03477455198341522 -0.01662626813117257 -0.0017153471987373457 0.010065114313245641 0.014971747989380106 -5.590297073580031 0.01630764577741801 -0.04163828219100444 -6.7663257003291495 -0.03515901155703577 0.02600836731183922 -6.749980487900556 -0.004037967339369805 -0.04235381481512749 0.0031965040566447325 -0.017134621679409986 0.021771050609270478 8.081271391125659 3.525048518668328 -19.2689041725338 -0.008070448817158935 10.375740887594462 0.0056054853513795334 -5.6338212242627215 -15.67306324365609 3.202742769285376 0.019152519725964746 -0.011108420547870566 -0.009249073451009037 -0.03474533198202707 4.679388697282906 0.019339334691066485 12.460880734704787 -8.218579213421611 6.867062472069036 -0.02148338912206301 46.40207499768094 -0.010351638576243194 -4.344378807651666 -14.770689989146184 -3.8828994220161532 0.010100460767603731 -0.008756835419847848 -0.0031800223001375886 0.04351115820551716 -10.759948129926848 0.010008156322138216 
-0.0016887643301986021 -0.013709907725065204 -0.008224803676918831 -0.029330484185408193 -0.031992971323816205 -0.032546403888402756 -0.4995296318768282 1.4114214767704767 -1.1452272463034312 -0.9049336764762074 3.9096460907112087 0.36728193836635004 -1.2306495033292622 -1.915212766388878 -0.1288830354905441 0.7398543214788985 0.545957690898461 -0.6031842847232017 0.9295086664877973 14.566613847713006 -3.3407294399440275 0.1631951349737243 0.29195300572999155 -9.676944208579927 1.3453841691550408 -15.170482565652039 -0.7947414916029628 -6.908212995902687 2.2766473743851274 -15.316447718878763 73.36971318244909 29.296904123162193 8.210694927809747 1.7805406186112955 2.116497107830474 66.12198447334319 21.607301070288017 -0.3625169120067292 -4.457834538848509 4.506554019902846 -0.14709642108641838 -1.6167083440479268 -0.045338357209612205 -0.03957512323984863 -56.25330624212536 0.0038114463520518838 0.019687985974312455 -56.23208156495097 -38.756950308028834 -0.02504179912362552 0.0008321591160255776 -0.012327490219686967 0.036808237760153 -0.03984972819777696 -0.027231492864363036 -0.04563325768805683 0.014022781356559325 -36.644004625716676 -0.0033695694140090807 -0.0371333495151382 0.005112054009792027 0.012186561377925793 -0.034398870257231 0.04063617093679153 0.0354084215136939 0.01744407994099894 -19.755357315669755 0.0296142357057635 0.009583983307484844 0.013249125111301868 -0.001336956170185353 -0.0225374187508425 -0.011428534768643755 0.04529315244931006 -0.0013759203502538894 24.10103565744872 0.007020975848128248 0.0322185166534944 28.882793682843165 0.029798285730156537 -0.013019802756593157 28.849524488750696 -0.02383148629447565 0.04902566379486065 6.0010076449938 1.4850627402271785 13.384638438349555 -69.94738518093271 29.84766697382382 -5.582955252830433 2.7590187921647993 -8.177723164145943 -51.85875477594459 -12.367771424042491 -0.16060125846419535 2.0914238367651774 -0.4504631209939607 0.07663050594358825 -8.133313429170444 -0.03309305891520441 -0.0178579300873275 44.5913879475685 0.02908542052571956 0.019653156961740154 44.535344243338606 12.450308925673278 0.00976011123982305 -0.004101681165995108 -0.042910961159382845 -0.024959801116184413 -0.013395574147443422 -0.02657173562354852 0.004130249387881514 0.03514785221120735 11.122745510905654 -0.018191622727549806 -0.003993359044226698 -0.048400502976317296 -0.014956889650438721 0.03740487999853188 -0.00127924256228894 0.02160445087798733 -0.04012465414995277 4.7457648439799875 -0.0243666479585354 -0.01408104419633838 -0.032236541036369484 0.047227991579533675 0.0438625362588532 -0.02848534973300634 -0.020165967328744528 0.01620203935505901 -5.625577189876527 -0.03985971689725255 0.0071099945287434576 -6.765131485220839 -0.03447066371314022 0.026648339942369335 -6.6816959759565275 -0.005431170508549692 0.03809015744324688 0.002224770949380756 -0.024377997492482192 -0.005551293400103796 7.998010484302777 3.522941585803023 -19.202021207581137 -0.0019577884487109606 10.413420808624533 0.04516311762672138 -5.598851855451608 -15.704582692560642 3.2107011121244726 0.0021406205294287935 0.04486530130864538 -0.023604342532979765 0.01948362163356065 4.661790972156586 -0.042409430226765826 12.463860458613938 -8.257743471973352 6.9155544591680735 0.04044170729572402 46.40936402050583 0.05118300733661291 -4.323423554395242 -14.789999948652667 -3.882633411774132 0.007994376387094913 -0.027282635235517372 -0.036894229687229656 -0.011157404179558588 -10.737462431566339 0.01031383500428767 
